<svg id="visual" viewBox="0 0 900 600" width="900" height="600" xmlns="http://www.w3.org/2000/svg" xmlns:xlink="http://www.w3.org/1999/xlink" version="1.1"><path d="M0 445L21.5 443.3C43 441.7 86 438.3 128.8 432C171.7 425.7 214.3 416.3 257.2 414.3C300 412.3 343 417.7 385.8 425.2C428.7 432.7 471.3 442.3 514.2 446C557 449.7 600 447.3 642.8 444.3C685.7 441.3 728.3 437.7 771.2 439.8C814 442 857 450 878.5 454L900 458L900 601L878.5 601C857 601 814 601 771.2 601C728.3 601 685.7 601 642.8 601C600 601 557 601 514.2 601C471.3 601 428.7 601 385.8 601C343 601 300 601 257.2 601C214.3 601 171.7 601 128.8 601C86 601 43 601 21.5 601L0 601Z" fill="#7ffa69"></path><path d="M0 449L21.5 448.8C43 448.7 86 448.3 128.8 447.8C171.7 447.3 214.3 446.7 257.2 445.7C300 444.7 343 443.3 385.8 444.5C428.7 445.7 471.3 449.3 514.2 456.5C557 463.7 600 474.3 642.8 473.5C685.7 472.7 728.3 460.3 771.2 457.8C814 455.3 857 462.7 878.5 466.3L900 470L900 601L878.5 601C857 601 814 601 771.2 601C728.3 601 685.7 601 642.8 601C600 601 557 601 514.2 601C471.3 601 428.7 601 385.8 601C343 601 300 601 257.2 601C214.3 601 171.7 601 128.8 601C86 601 43 601 21.5 601L0 601Z" fill="#6ced5c"></path><path d="M0 509L21.5 506C43 503 86 497 128.8 494.2C171.7 491.3 214.3 491.7 257.2 489.3C300 487 343 482 385.8 479.3C428.7 476.7 471.3 476.3 514.2 476.5C557 476.7 600 477.3 642.8 483.7C685.7 490 728.3 502 771.2 506C814 510 857 506 878.5 504L900 502L900 601L878.5 601C857 601 814 601 771.2 601C728.3 601 685.7 601 642.8 601C600 601 557 601 514.2 601C471.3 601 428.7 601 385.8 601C343 601 300 601 257.2 601C214.3 601 171.7 601 128.8 601C86 601 43 601 21.5 601L0 601Z" fill="#58e04e"></path><path d="M0 539L21.5 539C43 539 86 539 128.8 535.2C171.7 531.3 214.3 523.7 257.2 520C300 516.3 343 516.7 385.8 517.5C428.7 518.3 471.3 519.7 514.2 519.3C557 519 600 517 642.8 520.8C685.7 524.7 728.3 534.3 771.2 534.2C814 534 857 524 878.5 519L900 514L900 601L878.5 601C857 601 814 601 771.2 601C728.3 601 685.7 601 642.8 601C600 601 557 601 514.2 601C471.3 601 428.7 601 385.8 601C343 601 300 601 257.2 601C214.3 601 171.7 601 128.8 601C86 601 43 601 21.5 601L0 601Z" fill="#42d341"></path><path d="M0 573L21.5 572.2C43 571.3 86 569.7 128.8 569.2C171.7 568.7 214.3 569.3 257.2 566C300 562.7 343 555.3 385.8 551.7C428.7 548 471.3 548 514.2 552C557 556 600 564 642.8 567.7C685.7 571.3 728.3 570.7 771.2 570C814 569.3 857 568.7 878.5 568.3L900 568L900 601L878.5 601C857 601 814 601 771.2 601C728.3 601 685.7 601 642.8 601C600 601 557 601 514.2 601C471.3 601 428.7 601 385.8 601C343 601 300 601 257.2 601C214.3 601 171.7 601 128.8 601C86 601 43 601 21.5 601L0 601Z" fill="#24c733"></path></svg>